<?xml version="1.0" standalone="no"?>
<!DOCTYPE svg PUBLIC "-//W3C//DTD SVG 20010904//EN"
 "http://www.w3.org/TR/2001/REC-SVG-20010904/DTD/svg10.dtd">
<svg version="1.0" xmlns="http://www.w3.org/2000/svg"
 width="48.000000pt" height="48.000000pt" viewBox="0 0 48.000000 48.000000"
 preserveAspectRatio="xMidYMid meet">

<g transform="translate(0.000000,48.000000) scale(0.100000,-0.100000)"
fill="#000000" stroke="none">
<path d="M189 431 c-94 -30 -145 -125 -119 -220 13 -48 140 -191 170 -191 30
0 157 143 170 191 21 76 -10 159 -74 199 -38 23 -109 33 -147 21z m106 -116
c33 -32 33 -78 0 -110 -49 -50 -135 -15 -135 55 0 19 9 40 25 55 15 16 36 25
55 25 19 0 40 -9 55 -25z"/>
</g>
</svg>
