<?xml version="1.0" encoding="UTF-8"?>
<!DOCTYPE svg PUBLIC "-//W3C//DTD SVG 1.1//EN" "http://www.w3.org/Graphics/SVG/1.1/DTD/svg11.dtd">
<svg xmlns="http://www.w3.org/2000/svg" version="1.1" width="90px" height="90px" style="shape-rendering:geometricPrecision; text-rendering:geometricPrecision; image-rendering:optimizeQuality; fill-rule:evenodd; clip-rule:evenodd" xmlns:xlink="http://www.w3.org/1999/xlink">
<g><path style="opacity:0.844" fill="#000000" d="M 17.5,12.5 C 25.6577,11.8229 29.1577,15.4895 28,23.5C 25.7742,27.8608 22.2742,29.3608 17.5,28C 13.1392,25.7742 11.6392,22.2742 13,17.5C 14.025,15.313 15.525,13.6464 17.5,12.5 Z"/></g>
<g><path style="opacity:0.844" fill="#000000" d="M 41.5,12.5 C 49.6577,11.8229 53.1577,15.4895 52,23.5C 49.7742,27.8608 46.2742,29.3608 41.5,28C 37.1392,25.7742 35.6392,22.2742 37,17.5C 38.025,15.313 39.525,13.6464 41.5,12.5 Z"/></g>
<g><path style="opacity:0.844" fill="#000000" d="M 65.5,12.5 C 73.6577,11.8229 77.1577,15.4895 76,23.5C 73.7742,27.8608 70.2742,29.3608 65.5,28C 61.1392,25.7742 59.6392,22.2742 61,17.5C 62.025,15.313 63.525,13.6464 65.5,12.5 Z"/></g>
<g><path style="opacity:0.844" fill="#000000" d="M 17.5,36.5 C 25.6577,35.8229 29.1577,39.4895 28,47.5C 25.7742,51.8608 22.2742,53.3608 17.5,52C 13.1392,49.7742 11.6392,46.2742 13,41.5C 14.025,39.313 15.525,37.6464 17.5,36.5 Z"/></g>
<g><path style="opacity:0.844" fill="#000000" d="M 41.5,36.5 C 49.6577,35.8229 53.1577,39.4895 52,47.5C 49.7742,51.8608 46.2742,53.3608 41.5,52C 37.1392,49.7742 35.6392,46.2742 37,41.5C 38.025,39.313 39.525,37.6464 41.5,36.5 Z"/></g>
<g><path style="opacity:0.844" fill="#000000" d="M 65.5,36.5 C 73.6577,35.8229 77.1577,39.4895 76,47.5C 73.7742,51.8608 70.2742,53.3608 65.5,52C 61.1392,49.7742 59.6392,46.2742 61,41.5C 62.025,39.313 63.525,37.6464 65.5,36.5 Z"/></g>
<g><path style="opacity:0.844" fill="#000000" d="M 17.5,60.5 C 25.6577,59.8229 29.1577,63.4895 28,71.5C 25.7742,75.8608 22.2742,77.3608 17.5,76C 13.1392,73.7742 11.6392,70.2742 13,65.5C 14.025,63.313 15.525,61.6464 17.5,60.5 Z"/></g>
<g><path style="opacity:0.844" fill="#000000" d="M 41.5,60.5 C 49.6577,59.8229 53.1577,63.4895 52,71.5C 49.7742,75.8608 46.2742,77.3608 41.5,76C 37.1392,73.7742 35.6392,70.2742 37,65.5C 38.025,63.313 39.525,61.6464 41.5,60.5 Z"/></g>
<g><path style="opacity:0.844" fill="#000000" d="M 65.5,60.5 C 73.6577,59.8229 77.1577,63.4895 76,71.5C 73.7742,75.8608 70.2742,77.3608 65.5,76C 61.1392,73.7742 59.6392,70.2742 61,65.5C 62.025,63.313 63.525,61.6464 65.5,60.5 Z"/></g>
</svg>
