<?xml version="1.0" standalone="no"?>
<!DOCTYPE svg PUBLIC "-//W3C//DTD SVG 20010904//EN"
 "http://www.w3.org/TR/2001/REC-SVG-20010904/DTD/svg10.dtd">
<svg version="1.0" xmlns="http://www.w3.org/2000/svg"
 width="128.000000pt" height="128.000000pt" viewBox="0 0 128.000000 128.000000"
 preserveAspectRatio="xMidYMid meet">

<g transform="translate(0.000000,128.000000) scale(0.100000,-0.100000)"
fill="#000000" stroke="none">
<path d="M166 1118 c-14 -20 -16 -80 -16 -453 0 -373 2 -433 16 -453 15 -22
15 -22 347 -22 183 0 337 4 344 8 25 16 33 69 33 220 l0 157 117 117 118 118
-58 57 -57 58 -59 -59 -59 -59 -4 150 c-2 108 -7 155 -17 166 -12 15 -49 17
-352 17 -338 0 -338 0 -353 -22z m692 -173 l3 -169 -78 -78 -78 -78 -223 0
c-175 0 -223 -3 -220 -12 4 -10 56 -14 208 -16 l204 -2 -49 -50 -49 -50 -158
0 c-99 0 -158 -4 -158 -10 0 -6 57 -10 150 -10 l150 0 -6 -27 c-19 -78 -9 -73
-159 -73 -83 0 -135 -4 -135 -10 0 -6 49 -10 126 -10 101 0 129 -3 138 -15 10
-13 17 -13 66 0 30 8 86 15 125 15 72 0 82 16 12 22 l-38 3 86 85 85 85 0
-156 c0 -107 -4 -159 -12 -167 -9 -9 -97 -12 -335 -12 -308 0 -323 1 -333 19
-14 27 -14 845 0 872 10 19 23 19 343 17 l332 -3 3 -170z m219 -152 c-16 -16
-19 -15 -57 22 -38 37 -39 40 -23 57 16 18 18 17 57 -21 38 -39 40 -42 23 -58z
m-75 0 l38 -37 -182 -183 c-101 -101 -188 -183 -193 -183 -6 0 -26 16 -45 35
l-34 35 184 185 c102 102 187 185 189 185 3 0 22 -17 43 -37z m-374 -424 c-7
-4 -28 -10 -46 -14 -30 -6 -33 -5 -28 11 3 11 8 32 12 47 l7 28 33 -32 c24
-23 30 -35 22 -40z"/>
<path d="M390 980 c0 -6 50 -10 130 -10 80 0 130 4 130 10 0 6 -50 10 -130 10
-80 0 -130 -4 -130 -10z"/>
<path d="M267 864 c-21 -21 16 -24 251 -22 165 2 256 7 255 13 -3 11 -495 20
-506 9z"/>
<path d="M260 730 c0 -6 93 -10 260 -10 167 0 260 4 260 10 0 6 -93 10 -260
10 -167 0 -260 -4 -260 -10z"/>
</g>
</svg>
